<svg xmlns="http://www.w3.org/2000/svg" fill="none" viewBox="0 0 500 500" height="500" width="500">
<rect fill="black" height="500" width="500"></rect>
<path fill="#8817D1" d="M250.037 316.243L420 308.697L250.037 301.15L80 308.697L250.037 316.243Z" clip-rule="evenodd" fill-rule="evenodd"></path>
<path fill="#8817D1" d="M246.062 345.636L360.42 338.09L246.062 330.542L131.635 338.09L246.062 345.636Z" clip-rule="evenodd" fill-rule="evenodd"></path>
<path fill="#8817D1" d="M250.036 375.028L308.785 367.481L250.036 359.935L191.215 367.481L250.036 375.028Z" clip-rule="evenodd" fill-rule="evenodd"></path>
<path fill="url(#paint0_linear_462_342)" d="M420 278.907V278.614C419.987 272.49 419.583 266.617 418.839 260.744L416.842 249.044C415.14 241.067 412.783 233.315 409.802 225.837L407.253 219.457L403.671 212.461C396.361 198.402 386.805 185.522 375.418 174.201L258.374 169.583L365.757 165.35C335.408 139.66 294.726 124 249.999 124C213.653 124 179.973 134.343 152.337 152.008L258.374 156.189L139.766 160.871C129.913 168.509 121.034 177.152 113.323 186.638L108.502 192.681L104.143 199.681C97.9421 208.633 92.9834 218.334 89.1589 228.524L87.3364 234.041L85.1716 240.746C81.8022 252.955 80 265.821 80 278.907H420Z" clip-rule="evenodd" fill-rule="evenodd"></path>
<path fill="black" d="M300.933 210.631C320.204 199.66 334.16 195.55 356.418 201.777C378.673 208.004 380.474 252.263 389.813 271.239C376.548 254.076 368.954 221.283 345.749 219.792C322.541 218.304 299.06 226.817 284.036 242.164C287.575 245.159 291.115 248.152 294.651 251.143C264.758 269.316 224.332 273.398 189.767 261.737C202.182 260.361 213.995 255.595 223.202 248.247C209.23 226.754 176.588 220.281 149.433 224.64C122.275 229.001 121.211 264.094 95.0938 271.757C117.579 244.905 129.218 211.047 162.932 200.97C175.882 197.096 182.736 196.403 195.36 201.562C210.597 207.792 231.821 230.117 248.283 232.557C262.942 234.734 288.62 217.643 300.933 210.631Z"></path>
<defs>
<linearGradient gradientUnits="userSpaceOnUse" y2="123.997" x2="249.999" y1="278.908" x1="249.999" id="paint0_linear_462_342">
<stop stop-color="#9900CC"></stop>
<stop stop-color="#00CCFF" offset="1"></stop>
</linearGradient>
</defs>
</svg>
