<svg xmlns="http://www.w3.org/2000/svg" fill="none" viewBox="0 0 500 500" height="500" width="500">
<rect fill="white" height="500" width="500"></rect>
<path fill="#FF2670" d="M75 425V320H180V425H75ZM197.5 425V320H302.5V425H197.5ZM320 425V320H425V425H320ZM75 302.5V197.5H180V302.5H75ZM197.5 302.5V197.5H302.5V302.5H197.5ZM320 302.5V197.5H425V302.5H320ZM75 180V75H180V180H75ZM197.5 180V75H302.5V180H197.5ZM320 180V75H425V180H320ZM110 390H145V355H110V390ZM232.5 390H267.5V355H232.5V390ZM355 390H390V355H355V390ZM110 267.5H145V232.5H110V267.5ZM232.5 267.5H267.5V232.5H232.5V267.5ZM355 267.5H390V232.5H355V267.5ZM232.5 145H267.5V110H232.5V145ZM355 145H390V110H355V145Z"></path>
</svg>
