<svg xmlns="http://www.w3.org/2000/svg" width="933.333" height="933.333" version="1.0" viewBox="0 0 700 700"><path d="M330.9.4c-.2.2-3.3.7-6.9 1-3.6.3-7.6.8-9 1.1-1.3.2-4.2.7-6.4 1.1-2.2.3-8.1 1.6-13.2 2.9-32.1 8.4-57.7 25.3-67.1 44.5-19.9 40.6 22.6 81.3 95.7 91.5 23.9 3.4 61.2 1.2 80-4.5 1.9-.6 4.6-1.3 5.9-1.6 8.5-1.7 34-13.6 38.9-18.2.7-.6 1.7-1.2 2.1-1.2 1.5 0 14.7-13.7 17.9-18.5 9.8-14.8 10.5-32.3 1.8-47.6-7.2-12.6-20.5-23.7-39.1-32.9C413.3 9.1 404.8 6.6 375 1.5 371.1.8 331.5-.1 330.9.4zM139 96c-46.7 9.5-98.1 70.8-112.9 134.6-3.3 14.2-4 21-3.6 36.4.5 22.2 5.2 35.7 16.5 47 22.7 22.7 62.7 13.8 99-22 37.5-37.1 61.3-89.7 61.2-135.3-.1-44-24-68-60.2-60.7zM545.9 94.4c-.2.2-2.2.5-4.4.7-3.9.3-7.5 1.4-14.5 4.6-7.8 3.6-20.4 19.8-22.5 29.1-3.2 14.4-3.7 17.9-3.6 28.7 0 6.6.2 13.1.4 14.5.3 1.4.8 4.7 1.2 7.5 3.2 22 16.1 54.7 30.2 76.4 44.5 68.6 110.3 92.2 135.8 48.6 3.2-5.4 7.4-17.2 8.3-23.5.9-5.8.9-29.1 0-35.5-5.8-42.1-30-88.2-62.2-118.4-2.7-2.5-5.7-5.3-6.5-6.1-9.5-9-32.7-21.9-44.1-24.4-6.9-1.5-17.5-2.8-18.1-2.2zM57.9 373.5c-14.8 3.9-27 16.4-32.2 33-4.4 13.8-5.4 35.9-2.2 51.5.2.8.6 3.1 1 5 2 10.8 7 27.6 11 36.7 8.8 19.8 22.9 43.7 31.8 53.8 12.2 13.8 17.3 19 24.1 24.6 4.3 3.5 8.3 6.9 9 7.4 2.2 2 14.2 9.1 19.6 11.6 18.9 8.9 36.6 9.8 51 2.8 13.9-6.8 24.4-24.6 26.7-45.4 1.4-12.4.4-30.2-2.3-41.5-.3-1.4-.8-3.9-1.1-5.5-1.1-7-9.9-31-15.8-43C156.6 420 122.8 386.6 88 375c-7.7-2.6-23.1-3.4-30.1-1.5zM617.3 373.6c-44.7 9.7-94.4 67.9-110.1 128.9-3.7 14.2-4 15.7-4.9 25.5-1.6 16.9-.4 30.3 3.7 42.5 3.3 10.1 7.4 16.7 13.9 22.9 15.5 14.4 37.9 15 64.3 1.6 4.4-2.3 8.5-4.6 9.2-5.1.6-.5 4-3 7.5-5.5 19.5-14 41-40.1 54.8-66.4 24-45.8 29.5-94.4 13.8-122.5-5.7-10.2-13.8-17.1-24.5-21.1-5.9-2.1-19.9-2.5-27.7-.8zM341.7 555.6c-.1.1-4.7.4-10.2.8-5.5.4-12.5 1.1-15.5 1.6s-7.1 1.2-9 1.5c-1.9.3-4.3.8-5.2 1.1-.9.3-2.5.7-3.5.9-29.2 6.7-55.4 22.3-67.2 40.1-13.2 20-9.2 43.5 10.6 62.5 18.6 17.8 52.7 31.4 87.3 34.7 14.1 1.3 53 .5 55.8-1.2.4-.2 3-.7 5.7-1 11.5-1.5 30.3-7.5 42.7-13.7 7.2-3.5 17.9-10 20.4-12.4.6-.5 2.6-2.4 4.5-4 6.5-5.8 15.3-18.2 16.4-23.4.3-1.2.8-3.1 1.1-4.3.4-1.3.8-5.5.9-9.3 1.1-29.9-33.3-58.5-83-68.9-12.3-2.6-18.8-3.6-27.5-4.2-10-.6-23.9-1.1-24.3-.8z"/></svg>