<?xml version="1.0" encoding="UTF-8"?>
<svg xmlns="http://www.w3.org/2000/svg" style="display:none" viewBox="0 0 24 24">
    <symbol id="icon-chevron-left" viewBox="0 0 24 24">
        <path d="M14.2808 18.0743L8.28076 12.0743L14.2808 6.07434L15.6808 7.47434L11.0808 12.0743L15.6808 16.6743L14.2808 18.0743Z" />
    </symbol>
    <symbol id="icon-chevron-right" viewBox="0 0 24 24">
        <path d="M12.7787 11.8749L8.17871 7.27488L9.57871 5.87488L15.5787 11.8749L9.57871 17.8749L8.17871 16.4749L12.7787 11.8749Z" />
    </symbol>
    <symbol id="icon-chevron-up" viewBox="0 0 24 24">
        <path d="M12.1787 10.6749L7.57871 15.2749L6.17871 13.8749L12.1787 7.87488L18.1787 13.8749L16.7787 15.2749L12.1787 10.6749Z" />
    </symbol>
    <symbol id="icon-chevron-down" viewBox="0 0 24 24">
        <path d="M12.1787 12.4748L16.7787 7.87478L18.1787 9.27478L12.1787 15.2748L6.17871 9.27478L7.57871 7.87478L12.1787 12.4748Z" />
    </symbol>
    <symbol id="icon-arrow-down" viewBox="0 0 24 24">
        <path d="M10.7358 4.17273V16.3477L5.13584 10.7477L3.73584 12.1727L11.7358 20.1727L19.7358 12.1727L18.3358 10.7477L12.7358 16.3477V4.17273H10.7358Z" />
    </symbol>
    <symbol id="icon-arrow-left" viewBox="0 0 24 24">
        <path d="M7.56084 13.1727L13.1608 18.7727L11.7358 20.1727L3.73584 12.1727L11.7358 4.17273L13.1608 5.57273L7.56084 11.1727H19.7358V13.1727H7.56084Z" />
    </symbol>
    <symbol id="icon-arrow-right" viewBox="0 0 24 24">
        <path d="M16.4284 13.4282H4.25342V11.4282H16.4284L10.8284 5.82822L12.2534 4.42822L20.2534 12.4282L12.2534 20.4282L10.8284 19.0282L16.4284 13.4282Z" />
    </symbol>
    <symbol id="icon-arrow-up" viewBox="0 0 24 24">
        <path d="M10.8379 19.7074V7.5324L5.23789 13.1324L3.83789 11.7074L11.8379 3.7074L19.8379 11.7074L18.4379 13.1324L12.8379 7.5324V19.7074H10.8379Z" />
    </symbol>
    <symbol id="icon-arrow-right-up" viewBox="0 0 24 24">
        <path d="M7.23789 18.7074L5.83789 17.3074L15.4379 7.7074H6.83789V5.7074H18.8379V17.7074H16.8379V9.1074L7.23789 18.7074Z" />
    </symbol>
    <symbol id="icon-video-play" viewBox="0 0 24 24">
        <path fill-rule="evenodd" clip-rule="evenodd" d="M8.32205 6.08355C8.52079 5.96608 8.76364 5.9729 8.95631 6.10137L17.7063 11.9361C17.889 12.0579 18 12.2716 18 12.5014C18 12.7313 17.8889 12.9449 17.7062 13.0667L8.95619 18.8987C8.76352 19.0271 8.5207 19.0339 8.32199 18.9164C8.12329 18.7989 8 18.5757 8 18.3333V6.66667C8 6.4243 8.12331 6.20103 8.32205 6.08355Z" />
    </symbol>
    <symbol id="icon-menu" viewBox="0 0 24 24">
        <path d="M3 18V16H21V18H3ZM3 13V11H21V13H3ZM3 8V6H21V8H3Z" />
    </symbol>
    <symbol id="icon-close" viewBox="0 0 24 24">
        <path d="M8.4 17L7 15.6L10.6 12L7 8.42502L8.4 7.02502L12 10.625L15.575 7.02502L16.975 8.42502L13.375 12L16.975 15.6L15.575 17L12 13.4L8.4 17Z" />
    </symbol>
    <symbol id="icon-magnify" viewBox="0 0 24 24">
        <path d="M17,18.1l-4.2-4.2c-.3.3-.7.5-1.1.6-.4.2-.9.2-1.4.2-1.2,0-2.2-.4-3.1-1.3-.8-.8-1.3-1.9-1.3-3.1s.4-2.2,1.3-3.1,1.9-1.3,3.1-1.3,2.2.4,3.1,1.3c.8.8,1.3,1.9,1.3,3.1s0,.9-.2,1.4c-.2.4-.4.8-.6,1.1l4.2,4.2-.9.9-.2.2ZM10.3,13.3c.8,0,1.5-.3,2.1-.9s.9-1.3.9-2.1-.3-1.5-.9-2.1-1.3-.9-2.1-.9-1.5.3-2.1.9c-.6.6-.9,1.3-.9,2.1s.3,1.5.9,2.1c.6.6,1.3.9,2.1.9Z"/>
    </symbol>
</svg>
